PathFileType	4	(X/Y/Z)	C:/Users/beibeiliu/ov580/test_trc/User3\sequence.25_training_dense_right.trc
DataRate	CameraRate	NumFrames	NumMarkers	Units	OrigDataRate	OrigDataStartFrame	OrigNumFrames
120	120	22	19	mm	120	51	75
Frame#	Time	ThumbCMC			ThumbMCP			ThumbIP			ThumbTip			IndexMCP			IndexPIP			IndexTip			MiddleMCP			MiddlePIP			MiddleTip			RingMCP			RingPIP			RingTip			PinkyMCP			PinkyPIP			PinkyTip			BackHand1			BackHand2			BackHand3	
		X0	Y0	Z0	X1	Y1	Z1	X2	Y2	Z2	X3	Y3	Z3	X4	Y4	Z4	X5	Y5	Z5	X6	Y6	Z6	X7	Y7	Z7	X8	Y8	Z8	X9	Y9	Z9	X10	Y10	Z10	X11	Y11	Z11	X12	Y12	Z12	X13	Y13	Z13	X14	Y14	Z14	X15	Y15	Z15	X16	Y16	Z16	X17	Y17	Z17	X18	Y18	Z18	
50	0.416667	143.907	21.0275	-0.373549	133.891	26.3002	-31.8608	132.364	28.7974	-59.031	136.743	23.4468	-85.9181	197.012	36.6081	-52.9402	194.808	42.2971	-83.492	180.602	37.3556	-106.839	211.528	17.5315	-58.5413	210.17	21.1757	-87.0696	192.229	11.3178	-117.082	211.021	-7.20023	-54.2289	210.514	-3.85752	-82.0318	190.823	-10.466	-109.313	200.931	-28.9	-49.0341	197.844	-27.1551	-74.4909	180.657	-33.9124	-93.7944	199.41	-13.8033	-3.26749	187.806	-22.7253	23.1996	180.777	8.80651	14.5729	
51	0.425	118.826	11.5514	0.971415	112.111	14.8708	-33.9232	107.848	15.1394	-60.1829	112.05	12.8667	-86.1243	161.755	47.1201	-53.4563	157.639	53.7487	-82.9112	142.965	47.6587	-109.79	182.492	35.9338	-57.3269	181.572	42.797	-88.9699	164.941	31.4125	-122.601	193.521	14.2098	-56.5812	189.664	20.9993	-88.6151	178.471	7.13829	-113.91	193.838	-7.54724	-53.7681	193.423	-11.7576	-76.5431	176.756	-18.1536	-101.114	186.591	3.84608	-7.09128	181.891	-12.1045	20.073	159.45	19.9091	11.0969	
52	0.433333	103.18	-2.36752	-0.718781	90.5413	-5.93489	-32.7763	89.0137	-6.68477	-61.4093	88.8535	-10.0327	-84.5535	127.419	41.7887	-62.0376	116.751	46.4897	-90.1408	111.976	32.0029	-117.018	153.795	39.5724	-64.919	147.081	43.8735	-94.011	141.246	26.0408	-126.168	167.323	24.8076	-62.2099	166.417	26.4538	-90.4093	159.183	10.5605	-117.69	179.076	1.33279	-54.817	179.189	-0.679353	-80.5166	170.64	-12.5272	-102.473	170.304	10.66	-9.91255	165.641	-2.544	19.2863	139.1	16.366	5.85114	
53	0.441667	94.065	-15.2927	0.482658	78.8921	-24.4944	-29.0584	74.8011	-30.3542	-55.6639	77.7683	-35.1429	-84.0826	106.955	22.7537	-64.8851	99.434	22.5839	-93.1796	93.7875	6.58255	-117.049	130.104	25.5547	-70.0695	127.334	24.1403	-105.254	122.792	3.72098	-130.413	152.354	15.2708	-68.6565	150.621	13.7202	-95.3411	139.986	-5.49397	-120.716	169.058	-5.25724	-56.8192	171.677	-9.86668	-81.3801	162.356	-20.7672	-103.062	155.937	8.52053	-12.2703	156.054	0.771217	14.8178	122.335	13.4453	1.95831	
54	0.45	90.453	-21.5815	1.66919	76.5213	-35.69	-23.4739	68.5998	-45.8124	-52.9304	70.0878	-56.3612	-72.1891	97.7618	4.20861	-74.4476	86.7285	-5.06409	-101.601	82.4776	-23.7547	-117.896	120.564	6.82938	-78.8306	115.023	-3.01159	-110.559	107.361	-27.1326	-129.218	139.613	-1.84126	-73.4605	141.813	-9.35204	-99.5091	133.477	-31.5179	-118.245	159.887	-17.0773	-61.8259	160.087	-26.8998	-84.5989	154.111	-47.16	-103.95	144.711	2.25925	-20.1759	150.359	-0.85929	11.2143	114.518	9.2497	-5.487	
55	0.458333	85.6803	-23.4408	1.83841	71.4755	-41.7292	-22.7862	61.7	-57.6323	-43.1127	66.6097	-72.1688	-65.758	90.0818	-12.7487	-74.7249	83.0804	-27.6407	-99.4232	76.535	-49.6324	-111.77	115.324	-12.4388	-80.7303	108.316	-27.8216	-107.98	101.164	-62.3418	-121.295	137.082	-21.0097	-71.9684	128.655	-35.5431	-100.186	126.64	-64.2603	-110.392	152.341	-32.5899	-57.9061	153.808	-48.64	-81.2219	142.528	-67.5387	-93.8894	141.686	-4.29762	-23.4985	144.903	-3.48691	8.73581	107.645	4.67122	-8.63216	
56	0.466667	80.3164	-21.9759	3.68441	63.9245	-45.6391	-15.5882	55.4118	-63.2454	-36.0392	55.8881	-81.6048	-52.7323	87.3311	-26.9322	-73.4802	75.0783	-42.7071	-92.3886	66.0956	-71.3008	-100.947	109.683	-29.2479	-78.2997	102.975	-49.5269	-100.636	89.2906	-84.1481	-104.231	126.439	-37.9182	-68.6058	124.246	-60.2771	-91.5847	114.719	-88.6624	-92.4739	142.15	-48.238	-54.5505	142.559	-69.401	-71.6031	130.048	-93.9818	-74.4321	138.584	-13.7132	-21.4852	141.733	-5.55863	6.07555	108.396	0.357913	-10.9896	
57	0.475	76.7054	-15.5163	7.326	56.0688	-39.9194	-11.3455	41.8331	-60.7168	-28.7921	43.0118	-77.748	-38.5251	80.6423	-29.5723	-68.2529	68.5543	-50.9108	-87.683	55.0645	-78.2329	-87.87	104.098	-41.4144	-74.0058	88.6704	-64.9465	-93.4752	73.2946	-94.791	-86.5231	120.101	-51.9727	-62.905	109.032	-74.4523	-80.3391	89.4435	-99.862	-74.1842	133.813	-63.9862	-49.8885	121.783	-81.988	-60.2944	102.799	-106.247	-55.6574	132.909	-18.3054	-21.0955	140.935	-11.1259	3.34937	109.356	-0.284861	-11.5474	
58	0.483333	76.6995	-3.71023	6.00316	50.1281	-21.5606	-3.55247	29.5305	-36.9775	-17.9687	24.9625	-59.9363	-30.8078	76.1027	-27.4233	-64.2216	53.4323	-44.1704	-82.001	34.4734	-64.2403	-78.066	92.5382	-43.323	-67.4749	70.9016	-68.2977	-83.1169	41.598	-87.6842	-70.0264	101.366	-55.5169	-57.5207	84.9032	-81.639	-66.9649	62.1243	-96.0318	-56.8024	114.001	-71.6396	-40.2577	95.4655	-89.4715	-46.7605	72.5478	-102.869	-37.4721	130.257	-27.6416	-17.0197	140.696	-15.6723	9.25864	112.169	1.99967	-10.0876	
59	0.491667	81.9295	9.76252	6.42508	48.5632	4.70436	-4.53125	27.9482	-11.0207	-19.7864	12.6857	-25.2927	-27.3992	69.8725	-15.4098	-63.3553	46.4843	-28.7679	-77.6	19.8025	-42.0835	-73.302	76.7847	-40.9865	-65.6976	49.3561	-54.1231	-76.9288	18.6747	-62.028	-64.3989	83.4988	-57.0055	-51.9288	57.6822	-72.0268	-59.3704	31.4937	-77.4444	-45.5782	89.5255	-71.2183	-30.9921	65.3713	-82.4838	-35.1417	40.9007	-80.1467	-25.8889	118.909	-34.2519	-18.4394	135.592	-24.3232	10.5541	117.253	0.153193	-10.0725	
60	0.5	92.8377	22.1008	4.29949	62.4671	21.2698	-10.1747	36.4916	22.2818	-25.7991	14.4909	12.2455	-36.109	71.3698	-10.9159	-66.4262	42.6155	-9.38248	-80.9441	13.9906	-7.40013	-78.6692	70.8929	-30.7217	-62.9651	40.6392	-30.9622	-77.2771	2.00965	-28.8508	-64.1713	64.4224	-50.3211	-50.3631	38.1296	-52.1301	-56.3914	9.16088	-44.7897	-45.5249	64.3122	-62.9877	-25.1002	37.4174	-57.7116	-32.8046	15.5673	-51.9014	-22.1556	109.453	-41.4663	-13.9922	125.532	-35.623	12.5616	119.194	-7.48555	-13.4591	
61	0.508333	107.76	18.5339	-3.52719	84.105	35.2406	-18.7135	60.4915	40.8239	-39.1426	39.8175	33.4189	-48.0602	84.4164	-8.911	-66.8183	56.4703	-4.01948	-86.3043	35.3383	11.6478	-90.1257	69.5215	-31.0464	-61.1034	43.3638	-19.4902	-82.6199	14.0405	0.445158	-78.7904	60.3318	-38.8306	-49.975	36.2167	-34.319	-61.8913	9.75255	-16.8398	-57.1484	50.4806	-47.2013	-28.6321	28.7478	-40.3359	-33.665	8.97905	-15.3937	-32.4424	97.2827	-45.2273	-10.2183	113.142	-43.3535	16.893	123.313	-16.1495	-11.4294	
62	0.516667	127.762	6.69939	-6.84789	110.922	24.1834	-29.1261	93.7825	33.6486	-56.0295	74.5995	35.3206	-67.9084	99.2925	-24.0961	-68.5581	82.2305	-14.8298	-91.9064	65.3808	9.18891	-104.471	77.6141	-38.4125	-69.1358	61.6747	-23.5237	-89.965	37.1608	6.12688	-93.387	64.8614	-41.5149	-50.4234	46.1284	-26.9889	-72.9585	26.8304	-0.575083	-74.0154	50.7203	-42.4521	-29.2985	34.9104	-26.6096	-45.7459	26.6791	-0.224657	-49.9765	96.5697	-49.9132	-5.26581	106.315	-50.0832	24.2412	125.475	-32.6734	-8.06519	
63	0.525	144.68	-7.02654	-8.94512	134.56	7.14313	-36.058	126.253	15.6423	-63.97	106.999	17.2335	-83.6233	122.892	-44.2404	-69.4619	116.258	-33.0375	-100.929	97.9212	-11.4971	-111.625	101.177	-54.491	-68.5583	90.4443	-43.4848	-94.4592	70.3168	-9.26907	-107.031	84.3728	-54.0478	-54.4823	69.9348	-42.5951	-78.7593	58.2863	-16.3871	-87.9206	67.37	-49.5579	-37.2285	58.981	-37.5302	-56.263	50.1343	-12.1368	-66.933	105.891	-61.5335	-6.74749	112.296	-53.9915	26.2867	139.561	-44.7109	-4.15459	
64	0.533333	160.151	-12.6898	-1.32024	155.492	-3.97585	-38.9066	150.082	1.64404	-64.4973	135.304	-4.09414	-87.5994	159.282	-58.1876	-64.6522	150.646	-50.843	-99.1913	134.206	-32.0631	-113.244	138.806	-70.0261	-68.0545	125.633	-62.7288	-96.0335	112.095	-33.0588	-113.306	116.958	-71.3703	-57.0143	102.599	-62.1696	-86.4289	94.4861	-39.9653	-97.354	97.9657	-67.0958	-44.0426	87.7908	-56.5761	-66.2132	78.267	-35.0945	-78.0324	127.187	-71.7811	-4.78724	128.114	-61.9075	27.2605	157.698	-51.6403	4.3016	
65	0.541667	171.515	-8.08499	-1.39562	165.03	-4.7267	-34.4528	164.112	-2.15723	-63.6205	153.988	-9.29592	-85.2618	187.476	-55.3555	-58.7616	177.68	-54.298	-91.9053	163.944	-39.5736	-109.405	170.953	-74.6186	-65.94	163.592	-67.4596	-93.0717	145.383	-43.112	-112.057	154.575	-77.0016	-57.7172	144.68	-72.3542	-84.8159	127.843	-51.115	-100.483	132.672	-78.9297	-46.3161	120.838	-71.3985	-69.9487	112.262	-53.7122	-81.8853	155.43	-72.5153	0.963139	150.116	-60.1734	29.5419	179.026	-49.5806	7.89683	
66	0.55	171.801	4.97682	0.719018	165.511	7.60704	-31.279	166.837	8.60992	-64.2349	160.752	-2.81466	-83.8327	204.881	-33.2016	-59.0169	201.978	-29.5629	-87.7136	178.666	-20.3029	-109.809	199.477	-52.919	-60.1129	191.518	-49.6636	-92.0414	161.719	-34.7259	-111.923	184.689	-66.4273	-58.2655	173.465	-63.3529	-86.2682	153.867	-49.9403	-100.114	165.609	-75.7759	-44.9667	157.612	-73.7924	-67.13	136.624	-60.0756	-84.5008	181.387	-64.5572	-0.449978	168.742	-55.3522	27.746	190.827	-29.4338	12.4645	
67	0.558333	157.123	19.2917	3.74089	150.752	20.6246	-29.4301	151.512	20.3279	-60.3249	148.702	14.62	-82.1997	204.278	4.60081	-57.4521	197.058	8.75177	-87.5823	174.741	4.792	-106.971	208.262	-12.8257	-64.3628	199.422	-15.3083	-91.6383	169.284	-14.9508	-111.213	201.706	-35.6676	-54.2427	194.037	-34.8016	-83.9119	167.971	-33.5669	-100.797	189.663	-55.4539	-46.2095	181.319	-51.2616	-73.6512	161.104	-50.6209	-87.6423	196.541	-36.2738	1.16841	183.263	-40.0279	29.9111	192.202	-1.28891	11.5524	
68	0.566667	134.858	19.1929	5.0213	127.181	20.5625	-25.4417	121.126	26.9551	-58.1596	124.436	20.6267	-81.3413	181.273	33.3257	-54.2155	175.985	34.8782	-84.8996	153.741	28.2505	-104.973	195.464	17.1483	-65.7276	185.052	15.4092	-92.0454	157.53	3.77818	-113.249	199.137	-5.13024	-58.3139	190.007	-4.21593	-85.9896	164.112	-13.3713	-105.425	195.86	-25.6418	-50.802	189.235	-25.8641	-72.1919	166.802	-30.4268	-92.8958	194.271	-9.32953	-0.846407	186.2	-20.3817	23.7465	177.655	13.1062	11.0335	
69	0.575	118.915	11.3898	2.54651	105.389	12.6711	-24.744	98.5489	17.6556	-57.7995	98.9144	12.1645	-77.8441	148.769	45.3264	-58.3949	140.855	44.8881	-86.1316	124.495	31.29	-105.695	167.737	32.452	-64.6763	156.994	30.2404	-93.8169	137.883	6.9484	-115.456	179.789	11.4895	-58.9924	171.214	11.0642	-87.2457	153.152	-9.10042	-107.499	183.426	-7.69819	-54.7654	181.228	-15.1803	-76.8291	162.924	-24.0205	-94.4747	182.414	2.61303	-6.63309	172.846	-8.44044	23.813	152.44	19.2487	12.6366	
70	0.583333	103.26	3.17806	6.02249	89.131	4.06124	-25.0082	77.2213	7.65012	-54.4315	79.786	3.04305	-77.9271	129.282	39.4412	-60.9391	116.898	39.5812	-86.9827	98.9186	22.0426	-107.356	150.137	28.6309	-65.7326	135.989	28.9561	-93.1303	120.014	4.86163	-115.278	159.616	13.0055	-60.4487	153.508	11.4507	-89.2445	134.973	-6.20393	-108.541	169.488	-6.43138	-56.189	164.102	-13.3281	-81.3458	149.608	-21.2626	-96.0078	166.832	2.6713	-10.1202	162.865	-7.94433	17.6562	140.281	18.5419	10.0029	
71	0.591667	96.3445	1.10303	5.99267	78.0949	1.41997	-21.2766	73.489	0.961826	-53.2159	71.2421	-3.09778	-78.5768	119.981	34.5576	-58.6405	109.93	30.5034	-88.6756	92.1852	18.5326	-104.642	137.674	25.0761	-68.4761	127.354	21.7108	-94.5418	104.287	-2.9961	-116.133	151.463	7.14456	-62.9453	146.772	1.19535	-89.5922	124.467	-15.3521	-109.945	161.28	-15.5421	-53.797	155.453	-16.6463	-77.7792	140.83	-28.5156	-94.1883	160.805	-1.63608	-6.74022	155.294	-13.0759	22.7445	131.211	11.8483	12.0334	
